<?xml version="1.0" encoding="UTF-8"?>
<!DOCTYPE svg PUBLIC "-//W3C//DTD SVG 1.1//EN" "http://www.w3.org/Graphics/SVG/1.1/DTD/svg11.dtd">
<svg xmlns="http://www.w3.org/2000/svg" version="1.1" width="309px" height="309px" style="shape-rendering:geometricPrecision; text-rendering:geometricPrecision; image-rendering:optimizeQuality; fill-rule:evenodd; clip-rule:evenodd" xmlns:xlink="http://www.w3.org/1999/xlink">
<g><path style="opacity:1" fill="#010101" d="M -0.5,-0.5 C 102.5,-0.5 205.5,-0.5 308.5,-0.5C 308.5,102.5 308.5,205.5 308.5,308.5C 205.5,308.5 102.5,308.5 -0.5,308.5C -0.5,205.5 -0.5,102.5 -0.5,-0.5 Z"/></g>
<g><path style="opacity:1" fill="#f6f6f6" d="M 174.5,86.5 C 175.167,86.5 175.5,86.8333 175.5,87.5C 176.706,90.1391 178.706,90.9724 181.5,90C 192,79.5 202.5,69 213,58.5C 214.211,55.3109 215.377,52.1443 216.5,49C 216.307,46.4964 215.641,44.1631 214.5,42C 215.056,38.5613 216.889,37.728 220,39.5C 220.339,42.9784 219.839,46.3118 218.5,49.5C 218.902,52.3066 219.402,54.9732 220,57.5C 218.509,59.0037 216.676,59.8371 214.5,60C 203.833,70.6667 193.167,81.3333 182.5,92C 183.766,93.9827 185.432,94.9827 187.5,95C 193.333,89.1667 199.167,83.3333 205,77.5C 205.494,75.8659 205.66,74.1992 205.5,72.5C 207.199,72.3398 208.866,72.5065 210.5,73C 211.723,76.2226 214.056,77.8893 217.5,78C 219.094,83.2556 217.261,84.7556 212,82.5C 211.51,81.2068 211.343,79.8734 211.5,78.5C 209.801,78.3398 208.134,78.5065 206.5,79C 200.5,85 194.5,91 188.5,97C 196.864,102.857 203.197,110.357 207.5,119.5C 207.461,120.756 207.961,121.756 209,122.5C 209.822,114.655 209.656,106.989 208.5,99.5C 205.5,99.5 202.5,99.5 199.5,99.5C 199.5,98.5 199.5,97.5 199.5,96.5C 216.833,96.5 234.167,96.5 251.5,96.5C 289.029,96.9198 301.196,114.586 288,149.5C 279.717,158.102 269.55,162.769 257.5,163.5C 251.642,163.178 245.975,163.511 240.5,164.5C 243.771,166.842 247.438,167.176 251.5,165.5C 252.5,165.5 253.5,165.5 254.5,165.5C 260.957,171.067 268.29,174.4 276.5,175.5C 278.588,180.019 277.254,181.852 272.5,181C 268.33,176.415 263.33,173.082 257.5,171C 255.821,170.605 254.155,170.772 252.5,171.5C 250.962,171.547 249.962,170.88 249.5,169.5C 246.375,168.521 243.042,168.187 239.5,168.5C 238.858,179.221 239.525,189.554 241.5,199.5C 242.88,199.962 243.547,200.962 243.5,202.5C 242.935,204.405 241.935,206.071 240.5,207.5C 247.134,208.497 253.8,208.83 260.5,208.5C 260.5,209.5 260.5,210.5 260.5,211.5C 249.136,211.257 237.802,211.59 226.5,212.5C 224.372,211.371 222.039,211.204 219.5,212C 220.044,212.717 220.711,213.217 221.5,213.5C 224.296,216.797 227.296,219.964 230.5,223C 232.579,223.808 234.579,223.641 236.5,222.5C 237.76,219.945 239.094,217.445 240.5,215C 243.237,213.92 244.904,214.754 245.5,217.5C 241.598,220.413 238.265,224.079 235.5,228.5C 233.922,229.298 232.256,229.798 230.5,230C 232.449,231.835 234.783,233.001 237.5,233.5C 237.931,234.293 238.265,235.127 238.5,236C 236.4,238.1 234.233,240.267 232,242.5C 231.667,243.833 231.333,245.167 231,246.5C 227.886,248.179 225.719,247.345 224.5,244C 224.759,242.739 225.426,241.739 226.5,241C 232.495,241.176 233.995,238.676 231,233.5C 223.965,226.297 216.798,219.297 209.5,212.5C 206.375,211.521 203.042,211.187 199.5,211.5C 199.5,210.5 199.5,209.5 199.5,208.5C 201.527,208.662 203.527,208.495 205.5,208C 203.333,205.833 201.167,203.667 199,201.5C 191.352,210.324 182.185,216.99 171.5,221.5C 170.167,234.167 170.167,246.833 171.5,259.5C 174.946,260.761 176.946,259.428 177.5,255.5C 180.485,253.885 182.485,254.719 183.5,258C 182.18,260.892 179.846,262.225 176.5,262C 174.545,262.953 172.878,264.287 171.5,266C 166.605,265.965 165.438,263.798 168,259.5C 168.5,247.505 168.667,235.505 168.5,223.5C 166.901,223.232 165.568,223.566 164.5,224.5C 163.836,227.146 163.502,229.979 163.5,233C 163.519,236.252 164.186,239.085 165.5,241.5C 167.5,246.833 165.833,248.5 160.5,246.5C 160.5,245.167 160.5,243.833 160.5,242.5C 161.122,239.585 161.456,236.585 161.5,233.5C 161.478,230.41 160.812,227.743 159.5,225.5C 158.167,233.5 158.167,241.5 159.5,249.5C 162.243,252.21 161.91,254.543 158.5,256.5C 154.277,253.565 150.277,253.899 146.5,257.5C 143.58,256.032 142.913,253.865 144.5,251C 147.219,250.472 149.719,250.972 152,252.5C 153.711,252.561 155.044,251.894 156,250.5C 156.832,242.479 156.665,234.479 155.5,226.5C 137.006,229.225 119.673,225.891 103.5,216.5C 98.4736,220.013 94.807,224.513 92.5,230C 94.5755,233.088 97.4089,234.921 101,235.5C 101.987,239.506 100.487,241.339 96.5,241C 94.98,239.115 93.98,236.949 93.5,234.5C 91.9546,232.56 89.9546,231.394 87.5,231C 85.1929,225.963 86.8595,223.629 92.5,224C 95.5,221 98.5,218 101.5,215C 100.601,213.764 99.4341,212.93 98,212.5C 89.3754,220.123 81.042,228.123 73,236.5C 72.2025,238.259 72.3691,239.926 73.5,241.5C 79.552,239.864 80.8854,241.697 77.5,247C 74.5189,247.381 72.5189,246.048 71.5,243C 66.956,242.978 65.456,240.812 67,236.5C 68.3988,235.773 69.8988,235.273 71.5,235C 79.3333,227.167 87.1667,219.333 95,211.5C 95.1626,209.613 94.3293,208.113 92.5,207C 91.2506,206.26 90.2506,206.427 89.5,207.5C 88.6618,207.158 88.3284,206.492 88.5,205.5C 88.4312,202.916 87.2645,200.916 85,199.5C 79.892,204.974 73.7254,208.807 66.5,211C 52.2499,212.415 38.2499,211.248 24.5,207.5C 21.5024,208.814 18.5024,210.148 15.5,211.5C 15.2332,198.831 14.8999,186.164 14.5,173.5C 15.8221,173.33 16.9887,173.663 18,174.5C 23.9839,186.813 32.4839,196.98 43.5,205C 52.1667,209.667 60.8333,209.667 69.5,205C 80.9793,190.871 78.3126,180.204 61.5,173C 56.0068,171.087 50.5068,169.253 45,167.5C 43.6949,170.306 41.5282,171.14 38.5,170C 37.8333,168.333 37.1667,166.667 36.5,165C 31.4673,162.641 26.9673,159.474 23,155.5C 21.1508,157.047 19.6508,158.881 18.5,161C 13.9167,161.934 12.4167,160.1 14,155.5C 16.0408,154.577 18.2075,154.244 20.5,154.5C 19.2981,150.422 17.7981,146.422 16,142.5C 11.6584,120.527 19.8251,105.36 40.5,97C 49.2145,96.2249 57.8812,96.3915 66.5,97.5C 66.56,98.0431 66.8933,98.3764 67.5,98.5C 68.1818,97.7573 68.8485,97.0906 69.5,96.5C 71.2459,98.2516 73.2459,99.5849 75.5,100.5C 76.9464,101.613 78.6131,101.78 80.5,101C 82.1193,100.764 83.1193,99.9311 83.5,98.5C 80.2353,92.7338 75.5686,88.5671 69.5,86C 68.4258,85.2613 67.7591,84.2613 67.5,83C 69.4437,80.3436 71.1103,77.5103 72.5,74.5C 70.4763,70.0491 71.8096,67.8824 76.5,68C 77.8045,68.804 78.4712,69.9707 78.5,71.5C 76.0225,73.6466 74.0225,76.3132 72.5,79.5C 77.3049,87.9846 83.6382,95.3179 91.5,101.5C 101.835,91.9991 113.835,85.6658 127.5,82.5C 128.126,73.5894 127.293,64.9228 125,56.5C 123.509,54.9963 121.676,54.1629 119.5,54C 116.5,50 117.5,48 122.5,48C 124.004,49.4907 124.837,51.324 125,53.5C 127.333,54.8333 129.667,56.1667 132,57.5C 132.613,59.4952 132.113,61.1619 130.5,62.5C 129.182,69.0112 129.182,75.6778 130.5,82.5C 131.107,82.3764 131.44,82.0431 131.5,81.5C 133.167,81.5 134.833,81.5 136.5,81.5C 137.071,68.23 136.404,55.0633 134.5,42C 134.585,40.8926 134.919,39.8926 135.5,39C 132.784,35.2664 129.284,32.7664 125,31.5C 123.88,27.3195 125.38,25.4862 129.5,26C 130.249,27.7337 130.749,29.567 131,31.5C 134.566,35.0664 138.066,38.5664 141.5,42C 141.387,43.2798 140.72,44.1131 139.5,44.5C 138.501,56.4815 138.168,68.4815 138.5,80.5C 140.265,81.4614 142.265,81.7947 144.5,81.5C 144.5,66.1667 144.5,50.8333 144.5,35.5C 147.462,32.0359 150.629,28.7025 154,25.5C 153.797,21.3629 155.63,19.8629 159.5,21C 161.469,25.0468 160.136,27.0468 155.5,27C 152.667,29.8333 149.833,32.6667 147,35.5C 146.5,50.8297 146.333,66.163 146.5,81.5C 155.672,81.3804 164.339,83.3804 172.5,87.5C 173.183,87.1373 173.85,86.8039 174.5,86.5 Z"/></g>
<g><path style="opacity:1" fill="#7a7a7a" d="M 144.5,35.5 C 144.5,50.8333 144.5,66.1667 144.5,81.5C 142.265,81.7947 140.265,81.4614 138.5,80.5C 140.167,80.5 141.833,80.5 143.5,80.5C 143.171,65.324 143.504,50.324 144.5,35.5 Z"/></g>
<g><path style="opacity:1" fill="#4a4a4a" d="M 130.5,62.5 C 130.177,69.0221 130.51,75.3554 131.5,81.5C 131.44,82.0431 131.107,82.3764 130.5,82.5C 129.182,75.6778 129.182,69.0112 130.5,62.5 Z"/></g>
<g><path style="opacity:1" fill="#e3e3e3" d="M 83.5,98.5 C 83.1193,99.9311 82.1193,100.764 80.5,101C 78.6131,101.78 76.9464,101.613 75.5,100.5C 76.552,100.649 77.552,100.483 78.5,100C 71.5906,92.5863 64.2572,85.753 56.5,79.5C 55.0683,79.7332 54.5683,80.3999 55,81.5C 60.0365,86.3687 64.8698,91.3687 69.5,96.5C 68.8485,97.0906 68.1818,97.7573 67.5,98.5C 66.8933,98.3764 66.56,98.0431 66.5,97.5C 61.3573,91.0136 55.3573,85.6802 48.5,81.5C 44.8261,80.7675 41.1594,80.1008 37.5,79.5C 32.7191,82.5609 30.5524,81.2276 31,75.5C 33.573,74.0175 35.7397,74.5175 37.5,77C 50.9168,80.1606 57.7501,74.6606 58,60.5C 61.4238,58.7329 63.5904,59.7329 64.5,63.5C 63.5529,65.4002 62.0529,66.7335 60,67.5C 59.1667,69.1667 58.3333,70.8333 57.5,72.5C 58.934,74.2199 59.7674,76.2199 60,78.5C 66.8333,85.3333 73.6667,92.1667 80.5,99C 81.5768,99.4696 82.5768,99.3029 83.5,98.5 Z"/></g>
<g><path style="opacity:1" fill="#d8d8d8" d="M 175.5,87.5 C 175.5,86.8333 175.167,86.5 174.5,86.5C 179.797,80.7019 185.297,75.0353 191,69.5C 191.113,67.0261 192.113,65.0261 194,63.5C 194.675,57.9621 194.341,52.6288 193,47.5C 196.114,45.8214 198.281,46.6548 199.5,50C 199.387,51.2798 198.72,52.1131 197.5,52.5C 197.167,54.5 196.833,56.5 196.5,58.5C 196.62,62.3671 197.12,66.0338 198,69.5C 196.266,70.2489 194.433,70.7489 192.5,71C 187.626,77.3747 181.96,82.8747 175.5,87.5 Z"/></g>
<g><path style="opacity:1" fill="#0f0f0f" d="M 75.5,100.5 C 73.2459,99.5849 71.2459,98.2516 69.5,96.5C 64.8698,91.3687 60.0365,86.3687 55,81.5C 54.5683,80.3999 55.0683,79.7332 56.5,79.5C 64.2572,85.753 71.5906,92.5863 78.5,100C 77.552,100.483 76.552,100.649 75.5,100.5 Z"/></g>
<g><path style="opacity:1" fill="#070707" d="M 135.5,96.5 C 125.833,95.8333 116.167,95.1667 106.5,94.5C 135.828,79.074 163.494,81.574 189.5,102C 197.655,109.823 203.822,118.99 208,129.5C 208.667,146.167 208.667,162.833 208,179.5C 193.228,211.139 168.395,225.639 133.5,223C 122.694,221.509 112.694,217.843 103.5,212C 118.167,211.667 132.833,211.333 147.5,211C 181.688,205.968 197.688,186.135 195.5,151.5C 197.651,123.523 185.318,106.023 158.5,99C 150.961,97.0225 143.294,96.1892 135.5,96.5 Z"/></g>
<g><path style="opacity:1" fill="#727272" d="M 106.5,94.5 C 116.167,95.1667 125.833,95.8333 135.5,96.5C 125.161,96.6665 114.828,96.4998 104.5,96C 105.044,95.2828 105.711,94.7828 106.5,94.5 Z"/></g>
<g><path style="opacity:1" fill="#717171" d="M 251.5,96.5 C 234.167,96.5 216.833,96.5 199.5,96.5C 199.5,97.5 199.5,98.5 199.5,99.5C 198.566,98.4324 198.232,97.099 198.5,95.5C 216.341,95.1699 234.008,95.5033 251.5,96.5 Z"/></g>
<g><path style="opacity:1" fill="#020202" d="M 100.5,98.5 C 103.735,99.595 105.568,101.928 106,105.5C 106.667,137.833 106.667,170.167 106,202.5C 105.138,204.087 104.471,205.754 104,207.5C 102.867,209.211 101.367,209.711 99.5,209C 95.3179,204.985 91.3179,200.818 87.5,196.5C 95.2528,181.937 95.4194,167.271 88,152.5C 84.0674,147.893 79.5674,144.06 74.5,141C 75.3349,135.157 77.1683,129.657 80,124.5C 81.6591,125.817 82.8257,127.483 83.5,129.5C 84.325,130.386 85.325,130.719 86.5,130.5C 86.3338,124.491 86.5005,118.491 87,112.5C 91.0308,107.304 95.5308,102.637 100.5,98.5 Z"/></g>
<g><path style="opacity:1" fill="#7a7a7a" d="M 208.5,99.5 C 209.656,106.989 209.822,114.655 209,122.5C 207.961,121.756 207.461,120.756 207.5,119.5C 208.491,113.021 208.824,106.354 208.5,99.5 Z"/></g>
<g><path style="opacity:1" fill="#030303" d="M 44.5,99.5 C 55.2726,98.5885 64.106,102.255 71,110.5C 73,113.167 75,115.833 77,118.5C 77.6667,119.833 77.6667,121.167 77,122.5C 74.2471,127.757 72.0804,133.257 70.5,139C 59.541,136.868 48.8743,133.535 38.5,129C 31.8647,124.084 29.698,117.584 32,109.5C 34.8871,104.434 39.0537,101.101 44.5,99.5 Z"/></g>
<g><path style="opacity:1" fill="#040404" d="M 240.5,99.5 C 251.725,97.8234 258.225,102.49 260,113.5C 260.809,123.88 260.642,134.214 259.5,144.5C 257.144,146.69 254.644,148.69 252,150.5C 251.261,149.426 250.261,148.759 249,148.5C 246.453,150.177 243.62,150.844 240.5,150.5C 240.5,133.5 240.5,116.5 240.5,99.5 Z"/></g>
<g><path style="opacity:1" fill="#202020" d="M 85.5,99.5 C 87.1454,100.479 88.4787,101.812 89.5,103.5C 88.7112,105.488 87.5445,105.821 86,104.5C 85.5065,102.866 85.3398,101.199 85.5,99.5 Z"/></g>
<g><path style="opacity:1" fill="#010101" d="M 127.5,101.5 C 137.353,101.243 147.02,102.409 156.5,105C 163.732,107.899 168.565,113.066 171,120.5C 175.296,141.08 175.629,161.747 172,182.5C 168.868,193.632 161.702,200.798 150.5,204C 142.958,205.978 135.291,206.811 127.5,206.5C 127.5,171.5 127.5,136.5 127.5,101.5 Z"/></g>
<g><path style="opacity:1" fill="#191919" d="M 256.5,149.5 C 257.376,149.369 258.043,149.702 258.5,150.5C 257.42,152.996 256.086,155.33 254.5,157.5C 249.88,158.493 245.214,158.827 240.5,158.5C 240.5,156.833 240.5,155.167 240.5,153.5C 243.577,153.347 246.411,154.014 249,155.5C 251.654,153.678 254.154,151.678 256.5,149.5 Z"/></g>
<g><path style="opacity:1" fill="#a0a0a0" d="M 240.5,164.5 C 245.975,163.511 251.642,163.178 257.5,163.5C 256.5,164.167 255.5,164.833 254.5,165.5C 253.5,165.5 252.5,165.5 251.5,165.5C 248.038,164.518 244.371,164.185 240.5,164.5 Z"/></g>
<g><path style="opacity:1" fill="#090909" d="M 240.5,164.5 C 244.371,164.185 248.038,164.518 251.5,165.5C 247.438,167.176 243.771,166.842 240.5,164.5 Z"/></g>
<g><path style="opacity:1" fill="#bfbfbf" d="M 249.5,169.5 C 246.5,169.5 243.5,169.5 240.5,169.5C 240.193,179.582 240.526,189.582 241.5,199.5C 239.525,189.554 238.858,179.221 239.5,168.5C 243.042,168.187 246.375,168.521 249.5,169.5 Z"/></g>
<g><path style="opacity:1" fill="#181818" d="M 208.5,191.5 C 208.806,194.385 208.473,197.052 207.5,199.5C 202.614,197.221 202.281,194.388 206.5,191C 207.437,190.308 208.103,190.475 208.5,191.5 Z"/></g>
<g><path style="opacity:1" fill="#7b7b7b" d="M 208.5,191.5 C 209.641,194.64 209.808,197.973 209,201.5C 208.283,200.956 207.783,200.289 207.5,199.5C 208.473,197.052 208.806,194.385 208.5,191.5 Z"/></g>
<g><path style="opacity:1" fill="#282828" d="M 201.5,197.5 C 204.13,199.628 206.63,201.961 209,204.5C 209.667,205.833 209.667,207.167 209,208.5C 206.333,205.833 203.667,203.167 201,200.5C 200.53,199.423 200.697,198.423 201.5,197.5 Z"/></g>
<g><path style="opacity:1" fill="#757575" d="M 199.5,208.5 C 199.5,209.5 199.5,210.5 199.5,211.5C 203.042,211.187 206.375,211.521 209.5,212.5C 205.833,212.5 202.167,212.5 198.5,212.5C 198.232,210.901 198.566,209.568 199.5,208.5 Z"/></g>
<g><path style="opacity:1" fill="#797979" d="M 226.5,212.5 C 224.585,212.216 222.919,212.549 221.5,213.5C 220.711,213.217 220.044,212.717 219.5,212C 222.039,211.204 224.372,211.371 226.5,212.5 Z"/></g>
<g><path style="opacity:1" fill="#202020" d="M 212.5,212.5 C 213.601,211.402 214.934,211.235 216.5,212C 220.667,216.167 224.833,220.333 229,224.5C 229.667,225.833 229.667,227.167 229,228.5C 223.631,222.964 218.131,217.63 212.5,212.5 Z"/></g>
<g><path style="opacity:1" fill="#dbdbdb" d="M 88.5,205.5 C 88.3284,206.492 88.6618,207.158 89.5,207.5C 83.3936,214.055 77.0602,220.388 70.5,226.5C 70.2215,232.507 67.7215,233.84 63,230.5C 62.5038,228.965 62.6705,227.465 63.5,226C 62.5254,223.705 61.1921,221.705 59.5,220C 60.6908,216.691 62.8574,215.857 66,217.5C 66.1747,220.157 66.0081,222.824 65.5,225.5C 66.552,225.649 67.552,225.483 68.5,225C 75.0352,218.297 81.7018,211.797 88.5,205.5 Z"/></g>
<g><path style="opacity:1" fill="#9e9e9e" d="M 164.5,224.5 C 164.214,230.259 164.548,235.925 165.5,241.5C 164.186,239.085 163.519,236.252 163.5,233C 163.502,229.979 163.836,227.146 164.5,224.5 Z"/></g>
<g><path style="opacity:1" fill="#acacac" d="M 159.5,225.5 C 159.178,231.358 159.511,237.025 160.5,242.5C 160.5,243.833 160.5,245.167 160.5,246.5C 159.596,247.209 159.263,248.209 159.5,249.5C 158.167,241.5 158.167,233.5 159.5,225.5 Z"/></g>
<g><path style="opacity:1" fill="#040404" d="M 159.5,225.5 C 160.812,227.743 161.478,230.41 161.5,233.5C 161.456,236.585 161.122,239.585 160.5,242.5C 159.511,237.025 159.178,231.358 159.5,225.5 Z"/></g>
</svg>
